<!DOCTYPE svg PUBLIC "-//W3C//DTD SVG 20010904//EN" "http://www.w3.org/TR/2001/REC-SVG-20010904/DTD/svg10.dtd">
<svg version="1.0" xmlns="http://www.w3.org/2000/svg" width="554px" height="554px" viewBox="0 0 5540 5540" preserveAspectRatio="xMidYMid meet">
<g id="layer1" fill="#000000" stroke="none">
 <path d="M230 5080 l0 -460 -115 0 -115 0 0 -120 0 -120 2770 0 2770 0 0 120 0 120 -115 0 -115 0 0 460 0 460 -2540 0 -2540 0 0 -460z m4840 -120 l0 -340 -2300 0 -2300 0 0 340 0 340 2300 0 2300 0 0 -340z"/>
 <path d="M2420 4960 l0 -120 350 0 350 0 0 120 0 120 -350 0 -350 0 0 -120z"/>
 <path d="M2535 4023 c-557 -100 -1042 -571 -1259 -1223 -90 -269 -121 -467 -121 -780 0 -236 10 -338 50 -525 169 -785 698 -1368 1341 -1480 113 -20 336 -19 450 0 624 109 1149 675 1327 1430 49 209 61 321 61 575 0 254 -12 366 -61 575 -135 576 -482 1060 -923 1289 -125 65 -280 119 -405 140 -112 20 -350 19 -460 -1z m423 -238 c592 -112 1050 -679 1169 -1447 24 -156 24 -480 0 -638 -131 -853 -695 -1460 -1357 -1460 -600 0 -1128 501 -1314 1245 -46 183 -60 313 -60 535 0 354 60 632 200 930 183 386 488 678 829 795 156 53 375 70 533 40z"/>
 <path d="M2186 2773 c-56 -65 -72 -90 -65 -100 16 -18 908 -797 917 -801 4 -1 43 38 85 87 l78 90 -38 34 c-167 150 -889 777 -894 777 -4 0 -41 -39 -83 -87z"/>
 <path d="M2186 1850 c-45 -52 -75 -95 -70 -100 56 -53 919 -800 924 -800 6 0 85 87 147 161 13 15 -34 60 -447 420 -254 222 -465 405 -469 407 -4 1 -42 -39 -85 -88z"/>
 </g>

</svg>