<!DOCTYPE svg PUBLIC "-//W3C//DTD SVG 20010904//EN" "http://www.w3.org/TR/2001/REC-SVG-20010904/DTD/svg10.dtd">
<svg version="1.0" xmlns="http://www.w3.org/2000/svg" width="308px" height="422px" viewBox="0 0 3080 4220" preserveAspectRatio="xMidYMid meet">
<g id="layer1" fill="#000000" stroke="none">
 <path d="M1405 4148 c-95 -98 -263 -300 -400 -483 -553 -737 -881 -1430 -982 -2070 -21 -137 -24 -442 -5 -530 113 -517 546 -903 1162 -1037 94 -21 132 -23 360 -23 228 0 266 2 360 23 493 107 872 376 1063 752 89 178 124 355 114 583 -25 535 -242 1136 -644 1781 -223 357 -548 788 -758 1004 l-71 72 -64 0 -64 0 -71 -72z m207 -305 c602 -723 1008 -1468 1149 -2108 49 -224 64 -504 34 -645 -69 -330 -334 -619 -701 -766 -568 -227 -1273 -67 -1614 366 -152 192 -210 359 -210 600 0 708 438 1640 1198 2553 36 42 68 77 72 77 4 0 36 -35 72 -77z"/>
 <path d="M1435 2304 c-388 -63 -664 -381 -665 -767 0 -129 23 -225 83 -347 43 -89 64 -118 137 -191 50 -51 114 -103 157 -128 140 -83 321 -121 479 -101 190 24 328 91 464 229 73 73 94 102 137 191 60 122 83 218 83 347 -1 210 -80 401 -228 547 -98 97 -217 165 -347 200 -61 17 -245 28 -300 20z m274 -292 c126 -49 222 -137 281 -257 99 -201 62 -417 -98 -574 -207 -202 -497 -202 -704 0 -161 157 -198 373 -98 574 54 108 126 182 232 236 105 54 278 63 387 21z"/>
 </g>

</svg>