<!DOCTYPE svg PUBLIC "-//W3C//DTD SVG 20010904//EN" "http://www.w3.org/TR/2001/REC-SVG-20010904/DTD/svg10.dtd">
<svg version="1.0" xmlns="http://www.w3.org/2000/svg" width="512px" height="512px" viewBox="0 0 5120 5120" preserveAspectRatio="xMidYMid meet">
<g id="layer1" fill="#000000" stroke="none">
 <path d="M3783 5105 c-786 -102 -1648 -563 -2377 -1275 -792 -773 -1297 -1691 -1391 -2532 -31 -279 -17 -406 64 -566 144 -285 505 -607 790 -705 71 -25 96 -28 160 -25 90 5 150 30 256 110 292 220 763 854 869 1170 32 93 33 149 5 225 -29 78 -147 194 -287 283 -345 218 -444 291 -458 332 -9 29 95 230 205 395 309 463 816 927 1247 1139 99 48 119 55 139 46 35 -16 102 -105 227 -302 137 -217 192 -292 261 -357 109 -103 204 -125 342 -79 321 109 950 576 1175 874 142 189 146 332 13 569 -65 116 -161 241 -277 361 -163 168 -324 278 -479 327 -70 22 -94 25 -230 24 -84 -1 -198 -7 -254 -14z m382 -259 c121 -32 251 -122 402 -279 139 -145 264 -338 287 -445 28 -126 -597 -662 -1008 -863 -55 -27 -109 -49 -122 -49 -31 0 -105 84 -194 224 -190 297 -237 364 -299 425 -89 90 -144 116 -241 116 -68 0 -84 -4 -178 -47 -300 -137 -635 -381 -937 -683 -302 -302 -546 -637 -683 -937 -43 -93 -47 -110 -47 -178 0 -171 70 -240 556 -550 126 -80 209 -153 209 -184 0 -31 -84 -200 -157 -317 -195 -311 -508 -678 -665 -780 -70 -45 -81 -45 -177 -1 -157 71 -389 262 -505 416 -57 76 -118 188 -131 241 -11 48 -6 227 11 354 100 768 574 1613 1305 2326 714 696 1538 1133 2279 1210 167 17 235 17 295 1z"/>
 </g>

</svg>